<svg width="206" height="100" viewBox="0 0 206 100" fill="none" xmlns="http://www.w3.org/2000/svg">
<rect width="206" height="100" rx="6" fill="white"/>
<path d="M53.0703 55.623C53.2396 55.623 53.3242 55.8216 53.3242 56.2188C53.3242 56.5312 53.2754 56.7396 53.1777 56.8438C53.0801 56.9479 52.9954 57 52.9238 57H47.2012C47.0449 57 46.9668 56.8177 46.9668 56.4531V56.4238C46.9668 56.1113 47.0547 55.8672 47.2305 55.6914C47.2826 55.6393 47.3867 55.6133 47.543 55.6133H47.5723C47.5983 55.6198 47.6276 55.623 47.6602 55.623C47.8099 55.623 47.9629 55.6133 48.1191 55.5938C48.3079 55.5807 48.4544 55.5579 48.5586 55.5254C48.7409 55.4668 48.832 55.3594 48.832 55.2031V43.8262C48.832 43.7285 48.7897 43.6797 48.7051 43.6797H47.1133C46.931 43.6797 46.8073 43.5039 46.7422 43.1523C46.7292 43.0612 46.7194 42.9701 46.7129 42.8789C46.7129 42.4948 46.8008 42.3027 46.9766 42.3027H52.4062C53.9102 42.3092 55.1048 42.6706 55.9902 43.3867C56.8822 44.1094 57.3281 45.099 57.3281 46.3555C57.3281 48.3216 56.3809 49.6497 54.4863 50.3398L57.2207 54.7539C57.416 55.0729 57.6634 55.2975 57.9629 55.4277C58.2624 55.5579 58.64 55.623 59.0957 55.623C59.252 55.623 59.3301 55.8346 59.3301 56.2578C59.3301 56.5638 59.2812 56.7656 59.1836 56.8633C59.0924 56.9544 59.0143 57 58.9492 57H57.2891C56.7943 57 56.3353 56.8047 55.9121 56.4141C55.7819 56.2969 55.6712 56.1602 55.5801 56.0039L52.377 50.7891C51.9668 50.8346 51.472 50.8574 50.8926 50.8574V55.623H53.0703ZM50.8926 49.3535C52.2598 49.347 53.2493 49.181 53.8613 48.8555C54.6556 48.4323 55.0527 47.6836 55.0527 46.6094V46.5801C55.0527 45.4993 54.7305 44.7604 54.0859 44.3633C53.487 43.9922 52.4225 43.8066 50.8926 43.8066V49.3535ZM64.291 57.1953C63.5944 57.1953 62.9824 57.0651 62.4551 56.8047C61.9277 56.5443 61.4818 56.1797 61.1172 55.7109C60.388 54.7669 60.0234 53.5299 60.0234 52C60.0234 50.3984 60.5182 49.1484 61.5078 48.25C62.4062 47.4362 63.5391 47.0293 64.9062 47.0293H64.9355C66.2116 47.0293 67.237 47.5143 68.0117 48.4844C68.7539 49.4089 69.125 50.6068 69.125 52.0781C69.125 53.7188 68.6693 54.9948 67.7578 55.9062C66.8984 56.7656 65.7428 57.1953 64.291 57.1953ZM62.875 49.2168C62.6276 49.4772 62.4225 49.8353 62.2598 50.291C62.1035 50.7402 62.0254 51.2936 62.0254 51.9512C62.0254 52.6152 62.0872 53.1784 62.2109 53.6406C62.3411 54.0964 62.5169 54.474 62.7383 54.7734C63.1875 55.3854 63.8092 55.6914 64.6035 55.6914C65.4238 55.6914 66.0586 55.3333 66.5078 54.6172C66.918 53.9661 67.123 53.1133 67.123 52.0586C67.1165 50.2943 66.599 49.1875 65.5703 48.7383C65.2578 48.6016 64.9421 48.5332 64.623 48.5332C64.2975 48.5332 63.985 48.582 63.6855 48.6797C63.3926 48.7773 63.1224 48.9564 62.875 49.2168ZM80.2285 47.2246C80.3913 47.2246 80.4727 47.4102 80.4727 47.7812C80.4727 48.1198 80.3945 48.3672 80.2383 48.5234C80.1862 48.5755 80.1081 48.6016 80.0039 48.6016C79.8932 48.6016 79.7891 48.6081 79.6914 48.6211C79.6003 48.6341 79.5221 48.6602 79.457 48.6992C79.3529 48.7578 79.2715 48.8652 79.2129 49.0215L75.0918 59.5391C74.8835 60.0794 74.5449 60.5059 74.0762 60.8184C73.6074 61.1374 73.0312 61.2969 72.3477 61.2969C71.4362 61.2969 70.7982 60.9974 70.4336 60.3984C70.3034 60.1771 70.2383 59.9395 70.2383 59.6855C70.2318 59.6725 70.2285 59.6628 70.2285 59.6562C70.2285 59.4154 70.2643 59.2135 70.3359 59.0508C70.401 58.8815 70.4922 58.7383 70.6094 58.6211C70.8698 58.3607 71.153 58.2305 71.459 58.2305H71.4785C71.791 58.237 72.0319 58.2826 72.2012 58.3672C72.3639 58.4583 72.4974 58.5755 72.6016 58.7188C72.7839 58.9857 72.8783 59.3438 72.8848 59.793C73.0931 59.793 73.2721 59.6758 73.4219 59.4414C73.5781 59.207 73.7116 58.9564 73.8223 58.6895C73.9395 58.4225 74.0371 58.1686 74.1152 57.9277C74.1999 57.6934 74.2682 57.485 74.3203 57.3027C74.3789 57.1204 74.418 57 74.4375 56.9414L71.1953 48.6016H70.1016C69.9323 48.6016 69.8477 48.4062 69.8477 48.0156C69.8477 47.6966 69.8932 47.485 69.9844 47.3809C70.0755 47.2767 70.1569 47.2246 70.2285 47.2246H74.4668C74.6296 47.2246 74.7109 47.4102 74.7109 47.7812C74.7109 48.1133 74.6589 48.3346 74.5547 48.4453C74.457 48.5495 74.3757 48.6016 74.3105 48.6016C73.7376 48.6016 73.4512 48.7415 73.4512 49.0215L75.4336 54.8223L77.748 48.6016H76.4688C76.2995 48.6016 76.2148 48.4128 76.2148 48.0352C76.2148 47.6966 76.2572 47.4785 76.3418 47.3809C76.4329 47.2767 76.5078 47.2246 76.5664 47.2246H80.2285ZM84.2031 48.4062C84.2812 48.5755 84.3203 48.7676 84.3203 48.9824C84.3203 49.1973 84.2878 49.3861 84.2227 49.5488C84.1445 49.7116 84.0469 49.8516 83.9297 49.9688C83.6823 50.2161 83.3665 50.3431 82.9824 50.3496C82.377 50.3496 81.9635 50.0827 81.7422 49.5488C81.6771 49.3861 81.6445 49.1842 81.6445 48.9434C81.6445 48.709 81.7129 48.4876 81.8496 48.2793C81.9863 48.071 82.1654 47.8919 82.3867 47.7422C82.6146 47.5924 82.8685 47.472 83.1484 47.3809C83.4349 47.2897 83.7246 47.2181 84.0176 47.166C84.5319 47.0749 85.0951 47.0293 85.707 47.0293C86.3125 47.0293 86.8366 47.127 87.2793 47.3223C87.7285 47.5176 88.0833 47.7812 88.3438 48.1133C88.793 48.6927 89.0176 49.513 89.0176 50.5742V55.623H90.6582C90.834 55.623 90.9219 55.8151 90.9219 56.1992C90.9219 56.3685 90.8893 56.5378 90.8242 56.707C90.7591 56.8698 90.6582 56.9674 90.5215 57C90.1569 57.1042 89.6361 57.1562 88.959 57.1562C88.2754 57.1562 87.8945 57.1432 87.8164 57.1172C87.7383 57.0977 87.6667 57.0586 87.6016 57C87.4779 56.8893 87.3542 56.6647 87.2305 56.3262C86.4362 56.9056 85.4792 57.1953 84.3594 57.1953C83.3568 57.1953 82.569 56.9284 81.9961 56.3945C81.4557 55.8997 81.1855 55.252 81.1855 54.4512V54.4219C81.1855 53.4258 81.5534 52.6478 82.2891 52.0879C82.9336 51.5931 83.7376 51.3457 84.7012 51.3457H87.1133C87.1133 50.2585 87.0221 49.5586 86.8398 49.2461C86.6641 48.9271 86.4492 48.709 86.1953 48.5918C85.9479 48.4681 85.6159 48.4062 85.1992 48.4062H84.2031ZM84.7109 55.6914C85.5312 55.6914 86.332 55.3659 87.1133 54.7148V52.8105H84.9844C84.4635 52.8105 84.0794 52.8984 83.832 53.0742C83.3828 53.3867 83.1582 53.748 83.1582 54.1582C83.1582 54.9264 83.4772 55.4082 84.1152 55.6035C84.304 55.6621 84.5026 55.6914 84.7109 55.6914ZM91.1953 57C91.026 57 90.9414 56.8014 90.9414 56.4043C90.9414 56.0918 90.9902 55.8835 91.0879 55.7793C91.1855 55.6751 91.2702 55.623 91.3418 55.623H91.4395C92.1947 55.623 92.6211 55.5482 92.7188 55.3984C92.7578 55.3464 92.7773 55.2812 92.7773 55.2031V43.2402H91.0586C90.8763 43.2337 90.7526 43.0677 90.6875 42.7422C90.6745 42.651 90.6647 42.5566 90.6582 42.459C90.6582 42.1595 90.7461 41.9772 90.9219 41.9121C91.0977 41.8405 91.3288 41.7819 91.6152 41.7363C91.9082 41.6908 92.2109 41.6549 92.5234 41.6289C93.1224 41.5768 93.6953 41.5475 94.2422 41.541C94.5156 41.541 94.6589 41.8177 94.6719 42.3711C94.6719 42.5339 94.6751 42.7031 94.6816 42.8789V55.623H96.3223C96.4915 55.623 96.5762 55.8216 96.5762 56.2188C96.5762 56.5312 96.5273 56.7396 96.4297 56.8438C96.332 56.9479 96.2474 57 96.1758 57H91.1953Z" fill="black"/>
<path d="M107.631 55.623C107.8 55.623 107.885 55.8216 107.885 56.2188C107.885 56.5312 107.836 56.7396 107.738 56.8438C107.641 56.9479 107.556 57 107.484 57H102.289C102.139 57 102.064 56.8145 102.064 56.4434V56.4141C102.064 56.1081 102.152 55.8672 102.328 55.6914C102.38 55.6393 102.484 55.6133 102.641 55.6133H102.67C102.696 55.6198 102.725 55.623 102.758 55.623C102.908 55.623 103.061 55.6133 103.217 55.5938C103.406 55.5807 103.552 55.5579 103.656 55.5254C103.839 55.4668 103.93 55.3594 103.93 55.2031V43.8359C103.93 43.7318 103.887 43.6797 103.803 43.6797H102.211C102.029 43.6797 101.905 43.5072 101.84 43.1621C101.827 43.071 101.817 42.9831 101.811 42.8984C101.811 42.5013 101.895 42.3027 102.064 42.3027H107.846C108.008 42.3027 108.09 42.5306 108.09 42.9863C108.09 43.4486 107.976 43.6797 107.748 43.6797H105.99V48.7188H111.947V43.8359C111.947 43.7318 111.908 43.6797 111.83 43.6797H110.229C110.04 43.6797 109.913 43.5072 109.848 43.1621C109.835 43.071 109.828 42.9831 109.828 42.8984C109.828 42.5013 109.916 42.3027 110.092 42.3027H115.863C116.026 42.3027 116.107 42.5306 116.107 42.9863C116.107 43.4486 115.993 43.6797 115.766 43.6797H114.008V55.623H115.648C115.824 55.623 115.912 55.8216 115.912 56.2188C115.912 56.5378 115.86 56.7493 115.756 56.8535C115.658 56.9512 115.577 57 115.512 57H110.326C110.17 57 110.092 56.8145 110.092 56.4434C110.092 56.1113 110.18 55.8607 110.355 55.6914C110.408 55.6393 110.512 55.6133 110.668 55.6133H110.697C110.723 55.6198 110.753 55.623 110.785 55.623C110.935 55.623 111.088 55.6133 111.244 55.5938C111.426 55.5807 111.57 55.5579 111.674 55.5254C111.856 55.4668 111.947 55.3594 111.947 55.2031V50.2227H105.99V55.623H107.631ZM121.889 57.1953C121.192 57.1953 120.58 57.0651 120.053 56.8047C119.525 56.5443 119.079 56.1797 118.715 55.7109C117.986 54.7669 117.621 53.5299 117.621 52C117.621 50.3984 118.116 49.1484 119.105 48.25C120.004 47.4362 121.137 47.0293 122.504 47.0293H122.533C123.809 47.0293 124.835 47.5143 125.609 48.4844C126.352 49.4089 126.723 50.6068 126.723 52.0781C126.723 53.7188 126.267 54.9948 125.355 55.9062C124.496 56.7656 123.34 57.1953 121.889 57.1953ZM120.473 49.2168C120.225 49.4772 120.02 49.8353 119.857 50.291C119.701 50.7402 119.623 51.2936 119.623 51.9512C119.623 52.6152 119.685 53.1784 119.809 53.6406C119.939 54.0964 120.115 54.474 120.336 54.7734C120.785 55.3854 121.407 55.6914 122.201 55.6914C123.021 55.6914 123.656 55.3333 124.105 54.6172C124.516 53.9661 124.721 53.1133 124.721 52.0586C124.714 50.2943 124.197 49.1875 123.168 48.7383C122.855 48.6016 122.54 48.5332 122.221 48.5332C121.895 48.5332 121.583 48.582 121.283 48.6797C120.99 48.7773 120.72 48.9564 120.473 49.2168ZM135.668 56.0625C134.633 56.8177 133.699 57.1953 132.865 57.1953C131.225 57.1953 130.17 56.5378 129.701 55.2227C129.545 54.7865 129.467 54.2786 129.467 53.6992V48.7285H128.09C127.849 48.7285 127.729 48.4811 127.729 47.9863C127.729 47.6608 127.794 47.4818 127.924 47.4492C129.018 47.1693 130.017 47.0293 130.922 47.0293C131.208 47.0293 131.358 47.2897 131.371 47.8105V52.9863C131.371 54.2559 131.697 55.0143 132.348 55.2617C132.543 55.3398 132.787 55.3789 133.08 55.3789C133.367 55.3789 133.64 55.3464 133.9 55.2812C134.167 55.2161 134.405 55.138 134.613 55.0469C134.809 54.9492 134.984 54.8451 135.141 54.7344L135.561 54.4219V48.7285H134.223C133.956 48.7285 133.822 48.4876 133.822 48.0059C133.822 47.6999 133.907 47.5143 134.076 47.4492C134.252 47.3776 134.464 47.3158 134.711 47.2637C134.958 47.2181 135.215 47.1758 135.482 47.1367C135.99 47.0716 136.397 47.0358 136.703 47.0293H136.732C137.012 47.0293 137.185 47.0651 137.25 47.1367C137.328 47.2018 137.38 47.293 137.406 47.4102C137.445 47.5729 137.465 47.8594 137.465 48.2695V55.623H139.105C139.281 55.623 139.369 55.8346 139.369 56.2578C139.369 56.7135 139.236 56.9609 138.969 57C138.305 57.1042 137.712 57.1562 137.191 57.1562C136.671 57.1562 136.365 57.1302 136.273 57.0781C136.182 57.026 136.104 56.9544 136.039 56.8633C135.935 56.7201 135.811 56.4531 135.668 56.0625ZM142.963 55.6914H144.076C144.981 55.6914 145.59 55.4147 145.902 54.8613C145.993 54.6921 146.039 54.5065 146.039 54.3047C146.039 54.1029 145.99 53.9303 145.893 53.7871C145.801 53.6374 145.655 53.5007 145.453 53.377C145.147 53.1882 144.636 52.9863 143.92 52.7715C143.21 52.5501 142.67 52.3613 142.299 52.2051C141.928 52.0423 141.605 51.8503 141.332 51.6289C140.772 51.1602 140.492 50.5156 140.492 49.6953C140.492 48.4909 141.166 47.6803 142.514 47.2637C143.021 47.1074 143.523 47.0293 144.018 47.0293C144.506 47.0293 144.958 47.0618 145.375 47.127C145.805 47.1921 146.189 47.3027 146.527 47.459C147.302 47.8171 147.689 48.3281 147.689 48.9922V49.041C147.689 49.4056 147.562 49.7148 147.309 49.9688C147.061 50.2161 146.742 50.3431 146.352 50.3496C145.74 50.3496 145.323 50.0827 145.102 49.5488C145.036 49.3861 145.004 49.2526 145.004 49.1484C145.004 49.0443 145.043 48.7969 145.121 48.4062H144.154C143.627 48.4062 143.236 48.4974 142.982 48.6797C142.52 48.9987 142.289 49.3503 142.289 49.7344C142.289 50.2422 142.745 50.6523 143.656 50.9648L144.398 51.2188C145.655 51.6354 146.462 51.9902 146.82 52.2832C147.178 52.5762 147.439 52.8952 147.602 53.2402C147.764 53.5853 147.846 53.9792 147.846 54.4219C147.846 54.8711 147.758 55.2585 147.582 55.584C147.413 55.916 147.172 56.1992 146.859 56.4336C146.189 56.9414 145.316 57.1953 144.242 57.1953C143.292 57.1953 142.439 57.0521 141.684 56.7656C141.124 56.5573 140.727 56.2578 140.492 55.8672C140.375 55.6719 140.316 55.4603 140.316 55.2324C140.316 55.0111 140.349 54.819 140.414 54.6562C140.492 54.487 140.59 54.3438 140.707 54.2266C140.961 53.9792 141.28 53.8555 141.664 53.8555C142.042 53.8555 142.361 53.9824 142.621 54.2363C142.882 54.4837 143.012 54.7637 143.012 55.0762V55.0859C143.005 55.4115 142.989 55.6133 142.963 55.6914ZM149.408 51.9805C149.408 51.1732 149.542 50.457 149.809 49.832C150.069 49.2201 150.421 48.7057 150.863 48.2891C151.762 47.4557 152.872 47.0358 154.193 47.0293H154.223C155.434 47.0293 156.368 47.4102 157.025 48.1719C157.683 48.9271 158.012 50.0176 158.012 51.4434C158.012 51.7493 157.872 52.013 157.592 52.2344C157.318 52.4492 156.973 52.5566 156.557 52.5566H151.41C151.527 54.0801 152.058 55.0566 153.002 55.4863C153.301 55.623 153.617 55.6914 153.949 55.6914C154.281 55.6914 154.577 55.6556 154.838 55.584C155.098 55.5059 155.349 55.4115 155.59 55.3008C155.831 55.1836 156.065 55.0534 156.293 54.9102C156.768 54.6107 157.048 54.4609 157.133 54.4609C157.211 54.4674 157.296 54.5065 157.387 54.5781C157.465 54.6562 157.543 54.7474 157.621 54.8516C157.79 55.099 157.878 55.3073 157.885 55.4766V55.4961C157.885 55.6523 157.849 55.7565 157.777 55.8086C156.586 56.7331 155.232 57.1953 153.715 57.1953C152.354 57.1953 151.293 56.7201 150.531 55.7695C149.783 54.8451 149.408 53.582 149.408 51.9805ZM156.01 51.0918V51.0527C156.01 49.7637 155.635 48.9694 154.887 48.6699C154.652 48.5788 154.392 48.5332 154.105 48.5332C153.819 48.5332 153.52 48.5853 153.207 48.6895C152.895 48.8001 152.608 48.9596 152.348 49.168C151.768 49.6432 151.456 50.2845 151.41 51.0918H156.01Z" fill="#534E8D"/>
</svg>
