<svg width="113" height="21" viewBox="0 0 113 21" fill="none" xmlns="http://www.w3.org/2000/svg">
<path d="M7.07031 14.623C7.23958 14.623 7.32422 14.8216 7.32422 15.2188C7.32422 15.5312 7.27539 15.7396 7.17773 15.8438C7.08008 15.9479 6.99544 16 6.92383 16H1.20117C1.04492 16 0.966797 15.8177 0.966797 15.4531V15.4238C0.966797 15.1113 1.05469 14.8672 1.23047 14.6914C1.28255 14.6393 1.38672 14.6133 1.54297 14.6133H1.57227C1.59831 14.6198 1.6276 14.623 1.66016 14.623C1.8099 14.623 1.96289 14.6133 2.11914 14.5938C2.30794 14.5807 2.45443 14.5579 2.55859 14.5254C2.74089 14.4668 2.83203 14.3594 2.83203 14.2031V2.82617C2.83203 2.72852 2.78971 2.67969 2.70508 2.67969H1.11328C0.93099 2.67969 0.807292 2.50391 0.742188 2.15234C0.729167 2.0612 0.719401 1.97005 0.712891 1.87891C0.712891 1.49479 0.800781 1.30273 0.976562 1.30273H6.40625C7.91016 1.30924 9.10482 1.67057 9.99023 2.38672C10.8822 3.10938 11.3281 4.09896 11.3281 5.35547C11.3281 7.32161 10.3809 8.64974 8.48633 9.33984L11.2207 13.7539C11.416 14.0729 11.6634 14.2975 11.9629 14.4277C12.2624 14.5579 12.64 14.623 13.0957 14.623C13.252 14.623 13.3301 14.8346 13.3301 15.2578C13.3301 15.5638 13.2812 15.7656 13.1836 15.8633C13.0924 15.9544 13.0143 16 12.9492 16H11.2891C10.7943 16 10.3353 15.8047 9.91211 15.4141C9.7819 15.2969 9.67122 15.1602 9.58008 15.0039L6.37695 9.78906C5.9668 9.83464 5.47201 9.85742 4.89258 9.85742V14.623H7.07031ZM4.89258 8.35352C6.25977 8.34701 7.24935 8.18099 7.86133 7.85547C8.6556 7.43229 9.05273 6.68359 9.05273 5.60938V5.58008C9.05273 4.49935 8.73047 3.76042 8.08594 3.36328C7.48698 2.99219 6.42253 2.80664 4.89258 2.80664V8.35352ZM18.291 16.1953C17.5944 16.1953 16.9824 16.0651 16.4551 15.8047C15.9277 15.5443 15.4818 15.1797 15.1172 14.7109C14.388 13.7669 14.0234 12.5299 14.0234 11C14.0234 9.39844 14.5182 8.14844 15.5078 7.25C16.4062 6.4362 17.5391 6.0293 18.9062 6.0293H18.9355C20.2116 6.0293 21.237 6.51432 22.0117 7.48438C22.7539 8.40885 23.125 9.60677 23.125 11.0781C23.125 12.7188 22.6693 13.9948 21.7578 14.9062C20.8984 15.7656 19.7428 16.1953 18.291 16.1953ZM16.875 8.2168C16.6276 8.47721 16.4225 8.83529 16.2598 9.29102C16.1035 9.74023 16.0254 10.2936 16.0254 10.9512C16.0254 11.6152 16.0872 12.1784 16.2109 12.6406C16.3411 13.0964 16.5169 13.474 16.7383 13.7734C17.1875 14.3854 17.8092 14.6914 18.6035 14.6914C19.4238 14.6914 20.0586 14.3333 20.5078 13.6172C20.918 12.9661 21.123 12.1133 21.123 11.0586C21.1165 9.29427 20.599 8.1875 19.5703 7.73828C19.2578 7.60156 18.9421 7.5332 18.623 7.5332C18.2975 7.5332 17.985 7.58203 17.6855 7.67969C17.3926 7.77734 17.1224 7.95638 16.875 8.2168ZM34.2285 6.22461C34.3913 6.22461 34.4727 6.41016 34.4727 6.78125C34.4727 7.11979 34.3945 7.36719 34.2383 7.52344C34.1862 7.57552 34.1081 7.60156 34.0039 7.60156C33.8932 7.60156 33.7891 7.60807 33.6914 7.62109C33.6003 7.63411 33.5221 7.66016 33.457 7.69922C33.3529 7.75781 33.2715 7.86523 33.2129 8.02148L29.0918 18.5391C28.8835 19.0794 28.5449 19.5059 28.0762 19.8184C27.6074 20.1374 27.0312 20.2969 26.3477 20.2969C25.4362 20.2969 24.7982 19.9974 24.4336 19.3984C24.3034 19.1771 24.2383 18.9395 24.2383 18.6855C24.2318 18.6725 24.2285 18.6628 24.2285 18.6562C24.2285 18.4154 24.2643 18.2135 24.3359 18.0508C24.401 17.8815 24.4922 17.7383 24.6094 17.6211C24.8698 17.3607 25.153 17.2305 25.459 17.2305H25.4785C25.791 17.237 26.0319 17.2826 26.2012 17.3672C26.3639 17.4583 26.4974 17.5755 26.6016 17.7188C26.7839 17.9857 26.8783 18.3438 26.8848 18.793C27.0931 18.793 27.2721 18.6758 27.4219 18.4414C27.5781 18.207 27.7116 17.9564 27.8223 17.6895C27.9395 17.4225 28.0371 17.1686 28.1152 16.9277C28.1999 16.6934 28.2682 16.485 28.3203 16.3027C28.3789 16.1204 28.418 16 28.4375 15.9414L25.1953 7.60156H24.1016C23.9323 7.60156 23.8477 7.40625 23.8477 7.01562C23.8477 6.69661 23.8932 6.48503 23.9844 6.38086C24.0755 6.27669 24.1569 6.22461 24.2285 6.22461H28.4668C28.6296 6.22461 28.7109 6.41016 28.7109 6.78125C28.7109 7.11328 28.6589 7.33464 28.5547 7.44531C28.457 7.54948 28.3757 7.60156 28.3105 7.60156C27.7376 7.60156 27.4512 7.74154 27.4512 8.02148L29.4336 13.8223L31.748 7.60156H30.4688C30.2995 7.60156 30.2148 7.41276 30.2148 7.03516C30.2148 6.69661 30.2572 6.47852 30.3418 6.38086C30.4329 6.27669 30.5078 6.22461 30.5664 6.22461H34.2285ZM38.2031 7.40625C38.2812 7.57552 38.3203 7.76758 38.3203 7.98242C38.3203 8.19727 38.2878 8.38607 38.2227 8.54883C38.1445 8.71159 38.0469 8.85156 37.9297 8.96875C37.6823 9.21615 37.3665 9.3431 36.9824 9.34961C36.377 9.34961 35.9635 9.08268 35.7422 8.54883C35.6771 8.38607 35.6445 8.18424 35.6445 7.94336C35.6445 7.70898 35.7129 7.48763 35.8496 7.2793C35.9863 7.07096 36.1654 6.89193 36.3867 6.74219C36.6146 6.59245 36.8685 6.47201 37.1484 6.38086C37.4349 6.28971 37.7246 6.2181 38.0176 6.16602C38.5319 6.07487 39.0951 6.0293 39.707 6.0293C40.3125 6.0293 40.8366 6.12695 41.2793 6.32227C41.7285 6.51758 42.0833 6.78125 42.3438 7.11328C42.793 7.69271 43.0176 8.51302 43.0176 9.57422V14.623H44.6582C44.834 14.623 44.9219 14.8151 44.9219 15.1992C44.9219 15.3685 44.8893 15.5378 44.8242 15.707C44.7591 15.8698 44.6582 15.9674 44.5215 16C44.1569 16.1042 43.6361 16.1562 42.959 16.1562C42.2754 16.1562 41.8945 16.1432 41.8164 16.1172C41.7383 16.0977 41.6667 16.0586 41.6016 16C41.4779 15.8893 41.3542 15.6647 41.2305 15.3262C40.4362 15.9056 39.4792 16.1953 38.3594 16.1953C37.3568 16.1953 36.569 15.9284 35.9961 15.3945C35.4557 14.8997 35.1855 14.252 35.1855 13.4512V13.4219C35.1855 12.4258 35.5534 11.6478 36.2891 11.0879C36.9336 10.5931 37.7376 10.3457 38.7012 10.3457H41.1133C41.1133 9.25846 41.0221 8.55859 40.8398 8.24609C40.6641 7.92708 40.4492 7.70898 40.1953 7.5918C39.9479 7.4681 39.6159 7.40625 39.1992 7.40625H38.2031ZM38.7109 14.6914C39.5312 14.6914 40.332 14.3659 41.1133 13.7148V11.8105H38.9844C38.4635 11.8105 38.0794 11.8984 37.832 12.0742C37.3828 12.3867 37.1582 12.748 37.1582 13.1582C37.1582 13.9264 37.4772 14.4082 38.1152 14.6035C38.304 14.6621 38.5026 14.6914 38.7109 14.6914ZM45.1953 16C45.026 16 44.9414 15.8014 44.9414 15.4043C44.9414 15.0918 44.9902 14.8835 45.0879 14.7793C45.1855 14.6751 45.2702 14.623 45.3418 14.623H45.4395C46.1947 14.623 46.6211 14.5482 46.7188 14.3984C46.7578 14.3464 46.7773 14.2812 46.7773 14.2031V2.24023H45.0586C44.8763 2.23372 44.7526 2.06771 44.6875 1.74219C44.6745 1.65104 44.6647 1.55664 44.6582 1.45898C44.6582 1.15951 44.7461 0.977214 44.9219 0.912109C45.0977 0.840495 45.3288 0.781901 45.6152 0.736328C45.9082 0.690755 46.2109 0.654948 46.5234 0.628906C47.1224 0.576823 47.6953 0.547526 48.2422 0.541016C48.5156 0.541016 48.6589 0.817708 48.6719 1.37109C48.6719 1.53385 48.6751 1.70312 48.6816 1.87891V14.623H50.3223C50.4915 14.623 50.5762 14.8216 50.5762 15.2188C50.5762 15.5312 50.5273 15.7396 50.4297 15.8438C50.332 15.9479 50.2474 16 50.1758 16H45.1953Z" fill="black"/>
<path d="M61.6309 14.623C61.8001 14.623 61.8848 14.8216 61.8848 15.2188C61.8848 15.5312 61.8359 15.7396 61.7383 15.8438C61.6406 15.9479 61.556 16 61.4844 16H56.2891C56.1393 16 56.0645 15.8145 56.0645 15.4434V15.4141C56.0645 15.1081 56.1523 14.8672 56.3281 14.6914C56.3802 14.6393 56.4844 14.6133 56.6406 14.6133H56.6699C56.696 14.6198 56.7253 14.623 56.7578 14.623C56.9076 14.623 57.0605 14.6133 57.2168 14.5938C57.4056 14.5807 57.5521 14.5579 57.6562 14.5254C57.8385 14.4668 57.9297 14.3594 57.9297 14.2031V2.83594C57.9297 2.73177 57.8874 2.67969 57.8027 2.67969H56.2109C56.0286 2.67969 55.9049 2.50716 55.8398 2.16211C55.8268 2.07096 55.8171 1.98307 55.8105 1.89844C55.8105 1.5013 55.8952 1.30273 56.0645 1.30273H61.8457C62.0085 1.30273 62.0898 1.5306 62.0898 1.98633C62.0898 2.44857 61.9759 2.67969 61.748 2.67969H59.9902V7.71875H65.9473V2.83594C65.9473 2.73177 65.9082 2.67969 65.8301 2.67969H64.2285C64.0397 2.67969 63.9128 2.50716 63.8477 2.16211C63.8346 2.07096 63.8281 1.98307 63.8281 1.89844C63.8281 1.5013 63.916 1.30273 64.0918 1.30273H69.8633C70.026 1.30273 70.1074 1.5306 70.1074 1.98633C70.1074 2.44857 69.9935 2.67969 69.7656 2.67969H68.0078V14.623H69.6484C69.8242 14.623 69.9121 14.8216 69.9121 15.2188C69.9121 15.5378 69.86 15.7493 69.7559 15.8535C69.6582 15.9512 69.5768 16 69.5117 16H64.3262C64.1699 16 64.0918 15.8145 64.0918 15.4434C64.0918 15.1113 64.1797 14.8607 64.3555 14.6914C64.4076 14.6393 64.5117 14.6133 64.668 14.6133H64.6973C64.7233 14.6198 64.7526 14.623 64.7852 14.623C64.9349 14.623 65.0879 14.6133 65.2441 14.5938C65.4264 14.5807 65.5697 14.5579 65.6738 14.5254C65.8561 14.4668 65.9473 14.3594 65.9473 14.2031V9.22266H59.9902V14.623H61.6309ZM75.8887 16.1953C75.1921 16.1953 74.5801 16.0651 74.0527 15.8047C73.5254 15.5443 73.0794 15.1797 72.7148 14.7109C71.9857 13.7669 71.6211 12.5299 71.6211 11C71.6211 9.39844 72.1159 8.14844 73.1055 7.25C74.0039 6.4362 75.1367 6.0293 76.5039 6.0293H76.5332C77.8092 6.0293 78.8346 6.51432 79.6094 7.48438C80.3516 8.40885 80.7227 9.60677 80.7227 11.0781C80.7227 12.7188 80.2669 13.9948 79.3555 14.9062C78.4961 15.7656 77.3405 16.1953 75.8887 16.1953ZM74.4727 8.2168C74.2253 8.47721 74.0202 8.83529 73.8574 9.29102C73.7012 9.74023 73.623 10.2936 73.623 10.9512C73.623 11.6152 73.6849 12.1784 73.8086 12.6406C73.9388 13.0964 74.1146 13.474 74.3359 13.7734C74.7852 14.3854 75.4069 14.6914 76.2012 14.6914C77.0215 14.6914 77.6562 14.3333 78.1055 13.6172C78.5156 12.9661 78.7207 12.1133 78.7207 11.0586C78.7142 9.29427 78.1966 8.1875 77.168 7.73828C76.8555 7.60156 76.5397 7.5332 76.2207 7.5332C75.8952 7.5332 75.5827 7.58203 75.2832 7.67969C74.9902 7.77734 74.7201 7.95638 74.4727 8.2168ZM89.668 15.0625C88.6328 15.8177 87.6986 16.1953 86.8652 16.1953C85.2246 16.1953 84.1699 15.5378 83.7012 14.2227C83.5449 13.7865 83.4668 13.2786 83.4668 12.6992V7.72852H82.0898C81.849 7.72852 81.7285 7.48112 81.7285 6.98633C81.7285 6.66081 81.7936 6.48177 81.9238 6.44922C83.0176 6.16927 84.0169 6.0293 84.9219 6.0293C85.2083 6.0293 85.3581 6.28971 85.3711 6.81055V11.9863C85.3711 13.2559 85.6966 14.0143 86.3477 14.2617C86.543 14.3398 86.7871 14.3789 87.0801 14.3789C87.3665 14.3789 87.64 14.3464 87.9004 14.2812C88.1673 14.2161 88.4049 14.138 88.6133 14.0469C88.8086 13.9492 88.9844 13.8451 89.1406 13.7344L89.5605 13.4219V7.72852H88.2227C87.9557 7.72852 87.8223 7.48763 87.8223 7.00586C87.8223 6.69987 87.9069 6.51432 88.0762 6.44922C88.252 6.3776 88.4635 6.31576 88.7109 6.26367C88.9583 6.2181 89.2155 6.17578 89.4824 6.13672C89.9902 6.07161 90.3971 6.03581 90.7031 6.0293H90.7324C91.0124 6.0293 91.1849 6.0651 91.25 6.13672C91.3281 6.20182 91.3802 6.29297 91.4062 6.41016C91.4453 6.57292 91.4648 6.85938 91.4648 7.26953V14.623H93.1055C93.2812 14.623 93.3691 14.8346 93.3691 15.2578C93.3691 15.7135 93.2357 15.9609 92.9688 16C92.3047 16.1042 91.7122 16.1562 91.1914 16.1562C90.6706 16.1562 90.3646 16.1302 90.2734 16.0781C90.1823 16.026 90.1042 15.9544 90.0391 15.8633C89.9349 15.7201 89.8112 15.4531 89.668 15.0625ZM96.9629 14.6914H98.0762C98.9811 14.6914 99.5898 14.4147 99.9023 13.8613C99.9935 13.6921 100.039 13.5065 100.039 13.3047C100.039 13.1029 99.9902 12.9303 99.8926 12.7871C99.8014 12.6374 99.6549 12.5007 99.4531 12.377C99.1471 12.1882 98.6361 11.9863 97.9199 11.7715C97.2103 11.5501 96.6699 11.3613 96.2988 11.2051C95.9277 11.0423 95.6055 10.8503 95.332 10.6289C94.7721 10.1602 94.4922 9.51562 94.4922 8.69531C94.4922 7.49089 95.166 6.68034 96.5137 6.26367C97.0215 6.10742 97.5228 6.0293 98.0176 6.0293C98.5059 6.0293 98.9583 6.06185 99.375 6.12695C99.8047 6.19206 100.189 6.30273 100.527 6.45898C101.302 6.81706 101.689 7.32812 101.689 7.99219V8.04102C101.689 8.4056 101.562 8.71484 101.309 8.96875C101.061 9.21615 100.742 9.3431 100.352 9.34961C99.7396 9.34961 99.3229 9.08268 99.1016 8.54883C99.0365 8.38607 99.0039 8.2526 99.0039 8.14844C99.0039 8.04427 99.043 7.79688 99.1211 7.40625H98.1543C97.627 7.40625 97.2363 7.4974 96.9824 7.67969C96.5202 7.9987 96.2891 8.35026 96.2891 8.73438C96.2891 9.24219 96.7448 9.65234 97.6562 9.96484L98.3984 10.2188C99.6549 10.6354 100.462 10.9902 100.82 11.2832C101.178 11.5762 101.439 11.8952 101.602 12.2402C101.764 12.5853 101.846 12.9792 101.846 13.4219C101.846 13.8711 101.758 14.2585 101.582 14.584C101.413 14.916 101.172 15.1992 100.859 15.4336C100.189 15.9414 99.3164 16.1953 98.2422 16.1953C97.2917 16.1953 96.4388 16.0521 95.6836 15.7656C95.1237 15.5573 94.7266 15.2578 94.4922 14.8672C94.375 14.6719 94.3164 14.4603 94.3164 14.2324C94.3164 14.0111 94.349 13.819 94.4141 13.6562C94.4922 13.487 94.5898 13.3438 94.707 13.2266C94.9609 12.9792 95.2799 12.8555 95.6641 12.8555C96.0417 12.8555 96.3607 12.9824 96.6211 13.2363C96.8815 13.4837 97.0117 13.7637 97.0117 14.0762V14.0859C97.0052 14.4115 96.9889 14.6133 96.9629 14.6914ZM103.408 10.9805C103.408 10.1732 103.542 9.45703 103.809 8.83203C104.069 8.22005 104.421 7.70573 104.863 7.28906C105.762 6.45573 106.872 6.03581 108.193 6.0293H108.223C109.434 6.0293 110.368 6.41016 111.025 7.17188C111.683 7.92708 112.012 9.01758 112.012 10.4434C112.012 10.7493 111.872 11.013 111.592 11.2344C111.318 11.4492 110.973 11.5566 110.557 11.5566H105.41C105.527 13.0801 106.058 14.0566 107.002 14.4863C107.301 14.623 107.617 14.6914 107.949 14.6914C108.281 14.6914 108.577 14.6556 108.838 14.584C109.098 14.5059 109.349 14.4115 109.59 14.3008C109.831 14.1836 110.065 14.0534 110.293 13.9102C110.768 13.6107 111.048 13.4609 111.133 13.4609C111.211 13.4674 111.296 13.5065 111.387 13.5781C111.465 13.6562 111.543 13.7474 111.621 13.8516C111.79 14.099 111.878 14.3073 111.885 14.4766V14.4961C111.885 14.6523 111.849 14.7565 111.777 14.8086C110.586 15.7331 109.232 16.1953 107.715 16.1953C106.354 16.1953 105.293 15.7201 104.531 14.7695C103.783 13.8451 103.408 12.582 103.408 10.9805ZM110.01 10.0918V10.0527C110.01 8.76367 109.635 7.9694 108.887 7.66992C108.652 7.57878 108.392 7.5332 108.105 7.5332C107.819 7.5332 107.52 7.58529 107.207 7.68945C106.895 7.80013 106.608 7.95964 106.348 8.16797C105.768 8.64323 105.456 9.28451 105.41 10.0918H110.01Z" fill="#534E8D"/>
</svg>
